<?xml version="1.0" standalone="no"?>
<!DOCTYPE svg PUBLIC "-//W3C//DTD SVG 20010904//EN"
 "http://www.w3.org/TR/2001/REC-SVG-20010904/DTD/svg10.dtd">
<svg version="1.0" xmlns="http://www.w3.org/2000/svg"
 width="700.000000pt" height="700.000000pt" viewBox="0 0 700.000000 700.000000"
 preserveAspectRatio="xMidYMid meet">
<metadata>
Created by potrace 1.14, written by Peter Selinger 2001-2017
</metadata>
<g transform="translate(0.000000,700.000000) scale(0.100000,-0.100000)"
fill="#000000" stroke="none">
<path d="M3223 6890 c-39 -4 -102 -11 -139 -15 -38 -4 -71 -8 -74 -10 -3 -1
-27 -6 -55 -9 -27 -4 -57 -9 -65 -11 -8 -2 -31 -7 -50 -10 -19 -3 -64 -13
-100 -21 -36 -9 -72 -17 -80 -19 -84 -18 -358 -108 -427 -140 -17 -8 -34 -15
-37 -15 -13 0 -253 -115 -356 -171 -140 -76 -408 -262 -544 -379 -59 -50 -190
-176 -250 -239 -28 -29 -62 -65 -77 -80 -47 -48 -194 -235 -261 -331 -134
-194 -268 -438 -353 -645 -108 -262 -192 -585 -229 -873 -34 -269 -28 -680 14
-942 5 -36 13 -81 16 -100 15 -97 97 -409 129 -490 7 -19 27 -71 44 -115 117
-313 302 -633 529 -913 91 -112 86 -107 183 -208 171 -178 384 -359 555 -471
279 -184 552 -318 849 -415 100 -33 311 -89 390 -104 49 -9 223 -36 250 -39
17 -2 66 -7 110 -12 96 -10 490 -11 595 -1 236 21 506 75 730 144 164 52 327
118 520 212 52 26 324 184 330 192 3 4 14 12 26 18 11 6 70 48 130 93 480 361
831 798 1076 1339 79 176 179 466 203 591 2 12 6 28 9 37 3 9 7 28 10 42 2 14
11 63 20 110 19 104 24 132 30 190 2 25 8 77 13 115 10 90 10 506 0 610 -44
446 -153 826 -347 1216 -72 143 -161 294 -247 417 -67 96 -201 268 -244 313
-13 14 -54 56 -90 95 -164 172 -333 316 -521 447 -333 231 -696 398 -1085 497
-84 22 -165 42 -180 45 -66 12 -213 34 -268 40 -33 4 -73 9 -90 12 -53 8 -518
10 -592 3z"/>
</g>
</svg>
