<svg width="40" height="40" viewBox="0 0 40 40" fill="none" xmlns="http://www.w3.org/2000/svg">
<g clip-path="url(#clip0_164_285)">
<path d="M20 2C29.9 2 38 10.1 38 20C38 29.9 29.9 38 20 38C10.1 38 2 29.9 2 20C2 10.1 10.1 2 20 2ZM20 0C9 0 0 9 0 20C0 31 9 40 20 40C31 40 40 31 40 20C40 9 31 0 20 0Z" fill="#020166"/>
<rect x="14" y="10" width="4" height="19" fill="#020166"/>
<rect x="22" y="10" width="4" height="19" fill="#020166"/>
</g>
<defs>
<clipPath id="clip0_164_285">
<rect width="40" height="40" fill="white"/>
</clipPath>
</defs>
</svg>
