<?xml version="1.0" encoding="UTF-8" standalone="no"?>
<!-- Generator: Adobe Illustrator 26.0.3, SVG Export Plug-In . SVG Version: 6.00 Build 0)  -->

<svg
   sodipodi:docname="book.svg"
   xml:space="preserve"
   style="enable-background:new 0 0 40 40;"
   viewBox="0 0 40 40"
   y="0px"
   x="0px"
   id="f39495f3-77fb-4022-aa2f-95ab9fc8b599"
   version="1.1"
   inkscape:version="1.2.2 (b0a8486, 2022-12-01)"
   xmlns:inkscape="http://www.inkscape.org/namespaces/inkscape"
   xmlns:sodipodi="http://sodipodi.sourceforge.net/DTD/sodipodi-0.dtd"
   xmlns="http://www.w3.org/2000/svg"
   xmlns:svg="http://www.w3.org/2000/svg"><defs
   id="defs13" /><sodipodi:namedview
   id="namedview11"
   pagecolor="#ffffff"
   bordercolor="#000000"
   borderopacity="0.25"
   inkscape:showpageshadow="2"
   inkscape:pageopacity="0.0"
   inkscape:pagecheckerboard="0"
   inkscape:deskcolor="#d1d1d1"
   showgrid="true"
   inkscape:zoom="15.75996"
   inkscape:cx="17.671365"
   inkscape:cy="19.701827"
   inkscape:window-width="1440"
   inkscape:window-height="847"
   inkscape:window-x="0"
   inkscape:window-y="25"
   inkscape:window-maximized="1"
   inkscape:current-layer="f39495f3-77fb-4022-aa2f-95ab9fc8b599"><inkscape:grid
     type="xygrid"
     id="grid227" /></sodipodi:namedview>
<style
   type="text/css"
   id="style2">
	.st0{fill:#020166;}
</style>
<g
   id="g6">
	<path
   class="st0"
   d="M20,2c9.9,0,18,8.1,18,18s-8.1,18-18,18S2,29.9,2,20S10.1,2,20,2 M20,0C9,0,0,9,0,20s9,20,20,20s20-9,20-20   S31,0,20,0L20,0z"
   id="path4" />
</g>

<g
   id="g1511"
   transform="translate(0,1)"><rect
     style="fill:#020166;fill-opacity:1;fill-rule:nonzero;stroke-width:1.00521;stroke-dasharray:none"
     id="rect225"
     width="19"
     height="3"
     x="10"
     y="23"
     ry="0" /><rect
     style="fill:#020166;fill-opacity:1;fill-rule:nonzero;stroke-width:1.08167;stroke-dasharray:none"
     id="rect225-1"
     width="22"
     height="3"
     x="9.999999"
     y="17"
     ry="0" /><rect
     style="fill:#020166;fill-opacity:1;fill-rule:nonzero;stroke-width:0.922447;stroke-dasharray:none"
     id="rect225-1-4"
     width="16"
     height="3"
     x="10"
     y="11"
     ry="0" /></g></svg>
