<svg xmlns="http://www.w3.org/2000/svg" viewBox="0 0 236.19849 51.78">
  <g id="ad8c7ec6-d223-4e0d-8b62-2183a1ea0386" data-name="Calque 2">
    <g id="ae8b8bb7-0c70-4ff6-bed9-c3b5f64cb471" data-name="Layer 1">
      <g>
        <path d="M159.98264,46.94418c-.195,0-.20936,0-.41623.01117l-.02164-.02386c.01077-.39.02164-.80936.01816-1.16718-.08487,0-.17676-.0029-.34586-.0029-.288,0-.60455.0029-.85831.0058-.0039.65964.00733.89166.02585,1.15311l-.01852.02386c-.20264,0-.21381,0-.4166.01117l-.0216-.02386c.01474-.3411.01819-.51868.01819-1.56983,0-.468-.01081-.63443-.02164-.8428l.02164-.02362c.18792-.00427.232-.00427.40878-.00983l.01828.02365c-.00357.20411-.01093.48941-.01093.9646.1915.00266.29425.0069.53427.0069.33866,0,.49314-.00424.66645-.01114-.00739-.65967-.00739-.73529-.02585-.95056l.01846-.02362c.19892-.00427.22858-.00427.40894-.00983l.01816.02365c-.01093.33683-.01435.555-.01435,1.16178,0,.6737.01435.93069.03668,1.24948l-.02233.02386Z" style="fill: #fff"/>
        <path d="M161.71408,45.96976v.57867a.58934.58934,0,0,1-.4014.15238.3127.3127,0,0,1-.34979-.3143c0-.31055.34552-.35782.71808-.41114l.03311-.00561Zm.37915-.08383a2.21222,2.21222,0,0,0-.02542-.43323.56911.56911,0,0,0-.615-.35782,1.9828,1.9828,0,0,0-.63733.11462l-.0221.021c-.00347.07272-.00347.09369-.01083.253l.02905.01807a1.37206,1.37206,0,0,1,.56012-.13273.32212.32212,0,0,1,.30539.12851.40849.40849,0,0,1,.0336.21528l-.06292.00689c-.66285.07273-1.0756.22241-1.0756.6864a.57735.57735,0,0,0,.62619.58027.81024.81024,0,0,0,.51575-.17762l-.00342.12586.01474.021c.16944-.00714.19876-.01117.37171-.01407l.01849-.01806a6.10052,6.10052,0,0,1-.02237-.69333v-.344Z" style="fill: #fff"/>
        <path d="M164.39917,45.15063c-.00723.2641-.01111.51041-.01111.79126,0,.4263.01111.68354.0185.83164,0,.04886.00357.09793.00735.14679l-.01474.021c-.17676.0029-.20609.00693-.37552.01407l-.02276-.021.0046-.14545a.9867.9867,0,0,1-.57867.19721.70647.70647,0,0,1-.41974-.11915.86691.86691,0,0,1-.23938-.74487v-.21527c-.00735-.49612-.00735-.55209-.01883-.73929l.01883-.02386c.17264-.00424.20581-.00424.37881-.01673l.02277.02365-.01541.75892c0,.09368-.00348.16375,0,.33017.00378.14679.0119.45819.3837.45819a.75954.75954,0,0,0,.46057-.18024c.00275-.18741.00275-.348.00275-.54791a6.60563,6.60563,0,0,0-.02552-.80509l.02277-.0252c.16952-.00266.2092-.00266.37906-.01249l.022.02365Z" style="fill: #fff"/>
        <path d="M165.92731,46.67023c-.01071.11444-.01071.1383-.0145.24026l-.01831.021a1.09413,1.09413,0,0,1-.27637.03079.49155.49155,0,0,1-.43469-.18051c-.066-.10193-.066-.18424-.066-.59384l.00723-.76337c-.12893,0-.13272.0029-.2651.00714l-.01441-.021c.007-.11042.007-.13831.007-.25028l.022-.021c.08105,0,.12857.00424.25051,0-.00344-.07273-.00344-.14814-.00344-.22083-.00379-.06692-.00727-.13275-.01087-.19858l.01819-.02362c.16565-.03927.20627-.04907.37558-.09772l.02567.01651c-.01093.23066-.01471.27552-.01471.52848.155-.00424.19873-.00424.40908-.01114l.01856.021a2.26953,2.26953,0,0,0-.01184.24738l-.01807.01962c-.18362-.0029-.20639-.0058-.4013-.0058l-.00739.6445c.004.04194.004.24048.004.288,0,.2543.03283.33261.21683.33261a.53035.53035,0,0,0,.17694-.03058l.02542.021Z" style="fill: #fff"/>
        <path d="M167.62561,45.82031c-.33884.00269-.4787.0069-.92419.00269a.48606.48606,0,0,1,.486-.47785.4118.4118,0,0,1,.40155.2695.72324.72324,0,0,1,.03659.20566Zm.27615.6835a.935.935,0,0,1-.26522.15213.99576.99576,0,0,1-.32013.05179.6149.6149,0,0,1-.47559-.18716.64506.64506,0,0,1-.1394-.43347c.60339-.00266.70337-.00266,1.278,0l.02539-.021a1.0608,1.0608,0,0,0-.19851-.73236.79367.79367,0,0,0-.60456-.23889.9467.9467,0,0,0,.08856,1.89127,1.2722,1.2722,0,0,0,.58982-.13163l.0216-.025a3.07941,3.07941,0,0,1,.02948-.309l-.02948-.01676Z" style="fill: #fff"/>
        <path d="M171.41574,46.65887c-.01114.1189-.01114.14255-.01849.26145l-.02588.02386c-.71765,0-.83188.004-1.53189.01117l-.019-.02386c.01159-.27555.02255-.46268.02255-1.09735,0-.58268,0-.9155-.02588-1.31528l.02231-.02362c.72543-.00427.86932-.00427,1.547-.00983l.02192.02365c-.01114.10349-.0185.14542-.02588.2699l-.02167.02368c-.47513-.01251-.63373-.01251-1.10132-.01675-.0116.32013-.0116.42071-.0116.7395.45353.00269.59339,0,1.04264-.00711l.01831.02362a2.30365,2.30365,0,0,0-.01831.26724l-.02249.025c-.42676-.01114-.51938-.01114-1.02015-.01114-.00735.40243-.00378.50058,0,.83026.55658,0,.67057,0,1.14551-.01831l.02231.02392Z" style="fill: #fff"/>
        <path d="M173.35318,46.53168c-.01514.14816-.01852.16623-.02945.309l-.02585.02368a1.07852,1.07852,0,0,1-.50842.1189.87.87,0,0,1-.91684-.91977.90132.90132,0,0,1,.92419-.9686,1.25621,1.25621,0,0,1,.50461.11172l.01474.0239c-.01474.12427-.01828.17041-.02563.27393l-.02973.01385a.72009.72009,0,0,0-.40887-.13565.58788.58788,0,0,0-.57468.66544.56.56,0,0,0,.57132.64315.75744.75744,0,0,0,.47516-.17355l.02945.014Z" style="fill: #fff"/>
        <path d="M175.14673,46.02869a1.01047,1.01047,0,0,1-.08472.46109.45529.45529,0,0,1-.42007.232.52538.52538,0,0,1-.21707-.04483.64893.64893,0,0,1-.29471-.62887.87263.87263,0,0,1,.11023-.48786.4681.4681,0,0,1,.4053-.20123.43683.43683,0,0,1,.39465.1972,1.03908,1.03908,0,0,1,.10639.47251Zm.40134-.01429a.99657.99657,0,0,0-.2244-.66925.89237.89237,0,0,0-.65988-.25027.86344.86344,0,0,0-.939.94763.97218.97218,0,0,0,.25452.70715.91587.91587,0,0,0,.65945.23359.8902.8902,0,0,0,.63688-.21262.81595.81595,0,0,0,.23941-.41937,1.42264,1.42264,0,0,0,.033-.33686Z" style="fill: #fff"/>
        <path d="M176.53162,46.94128c-.17688.0029-.21305.00693-.387.01407l-.01828-.02386c.008-.24741.01828-.55927.01828-1.22583,0-.47962,0-.99249-.03637-1.43707l.01809-.01941c.18024-.02924.21817-.035.40195-.07273l.02188.02384c-.02588.45419-.02588.91131-.02588,1.367,0,.75894.011,1.02307.02942,1.353l-.02206.021Z" style="fill: #fff"/>
        <path d="M178.44275,45.82031c-.33817.00269-.4783.0069-.9242.00269a.48626.48626,0,0,1,.48633-.47785.41207.41207,0,0,1,.40155.2695.67755.67755,0,0,1,.03632.20566Zm.27643.6835a.92972.92972,0,0,1-.2648.15213.9986.9986,0,0,1-.32056.05179.61481.61481,0,0,1-.47516-.18716.64955.64955,0,0,1-.14011-.43347c.60407-.00266.7038-.00266,1.27826,0l.02588-.021a1.05946,1.05946,0,0,0-.19922-.73236.79245.79245,0,0,0-.60388-.23889.94669.94669,0,0,0,.08829,1.89127,1.26323,1.26323,0,0,0,.58923-.13163l.02207-.025c.00778-.13431.01184-.17066.02945-.309l-.02945-.01676Z" style="fill: #fff"/>
        <path d="M181.58887,45.55618c.2688.11154.62619.257.62619.70157,0,.3884-.30606.73819-.94745.73819a1.66863,1.66863,0,0,1-.72879-.15259l-.01471-.02365c.01471-.12179.01807-.18738.02942-.3201l.037-.01272a1.12822,1.12822,0,0,0,.648.20434c.37948,0,.5383-.18338.5383-.39151,0-.24341-.21439-.33685-.45331-.42361l-.18427-.07678c-.26187-.11463-.61148-.2641-.61148-.68772a.61536.61536,0,0,1,.114-.3634.93283.93283,0,0,1,.77362-.30612,2.03878,2.03878,0,0,1,.663.11181l.01831.0279c-.01449.13138-.01831.18023-.02923.30606l-.02945.01248a1.267,1.267,0,0,0-.60764-.15927c-.30563,0-.49725.13428-.49725.33975a.31059.31059,0,0,0,.18762.274,1.98418,1.98418,0,0,0,.28372.12579l.1843.07562Z" style="fill: #fff"/>
        <path d="M183.18719,46.67694c-.00375-.2012-.00732-.40512-.00732-.61081,0-.176.00357-.35354.00732-.53381a.74258.74258,0,0,1,.42389-.14524c.29447,0,.497.2222.497.58268a.69044.69044,0,0,1-.76605.717c-.0629,0-.10709-.00693-.15485-.00983Zm0-1.54013-.02584-.021c-.16553.03211-.20658.04194-.38639.0698l-.019.021a9.72911,9.72911,0,0,1,.048,1.17542c0,.20434.00375.40958.00375.61392,0,.35471-.00714.57285-.01468.78391l.01849.021c.12851-.00268.25788-.00717.38639-.00979l.02209-.021c-.01852-.32568-.02588-.41626-.02905-.833.05182.00424.09573.00714.1658.00714a1.01509,1.01509,0,0,0,1.15668-.998.79532.79532,0,0,0-.79578-.85126.85154.85154,0,0,0-.53781.18738l.00732-.14545Z" style="fill: #fff"/>
        <path d="M186.32129,45.82031c-.3382.00269-.47827.0069-.92426.00269a.48666.48666,0,0,1,.48679-.47785.41084.41084,0,0,1,.40088.2695.7169.7169,0,0,1,.03659.20566Zm-.01807-1.45089c-.07025.004-.14013.004-.21014.004s-.13608,0-.21729-.004l-.02227.01806c-.08081.22507-.18766.44727-.22443.53116l.01517.02362c.12845,0,.16931,0,.26858.00314l.02564-.01428a6.14666,6.14666,0,0,1,.37948-.53381l-.01474-.02789Zm.29492,2.13439a.94.94,0,0,1-.26593.15213.99382.99382,0,0,1-.32013.05179.613.613,0,0,1-.47448-.18716.64212.64212,0,0,1-.14057-.43347c.60413-.00266.7034-.00266,1.27805,0l.02591-.021a1.06382,1.06382,0,0,0-.199-.73236.79237.79237,0,0,0-.60391-.23889.9467.9467,0,0,0,.08859,1.89127,1.26969,1.26969,0,0,0,.58918-.13163l.0223-.025a2.99634,2.99634,0,0,1,.029-.309l-.029-.01676Z" style="fill: #fff"/>
        <path d="M188.64554,46.53168c-.01492.14816-.01828.16623-.02948.309l-.02539.02368a1.0812,1.0812,0,0,1-.50882.1189.87014.87014,0,0,1-.91687-.91977.90156.90156,0,0,1,.92422-.9686,1.25259,1.25259,0,0,1,.50461.11172l.01517.0239c-.01517.12427-.01831.17041-.02567.27393l-.02923.01385a.72353.72353,0,0,0-.40894-.13565.58757.58757,0,0,0-.5744.66544c0,.4725.28332.64315.57062.64315a.75512.75512,0,0,0,.4747-.17355l.02948.014Z" style="fill: #fff"/>
        <path d="M189.51843,46.94128c-.19159.0029-.22058.0029-.40085.01407l-.01916-.02386c.01114-.18448.02273-.34513.02273-.72971a6.82739,6.82739,0,0,0-.037-.99228l.01809-.02386c.15836-.02518.2139-.03211.3982-.0698l.03659.021c-.011.18024-.02234.36762-.02234.81467,0,.64605.0076.7326.02234.96884l-.01856.021Zm.00382-2.30777c-.18805.00718-.22885.00983-.40845.02814l-.02234-.021c.00336-.04486.00336-.09372.00336-.13855,0-.06293-.00336-.1189-.00714-.18872l.02612-.01941c.19138-.01429.22464-.01831.40845-.03525l.02209.021c-.00378.14277-.00378.17624,0,.33014l-.02209.02365Z" style="fill: #fff"/>
        <path d="M191.22787,45.96976v.57867a.59113.59113,0,0,1-.40173.15238.31286.31286,0,0,1-.35022-.3143c0-.31055.34619-.35782.71875-.41114l.0332-.00561Zm.37931-.08383a2.13382,2.13382,0,0,0-.02637-.43323.56852.56852,0,0,0-.61456-.35782,1.98172,1.98172,0,0,0-.63715.11462l-.02276.021c-.0033.07272-.0033.09369-.01.253l.029.01807a1.37183,1.37183,0,0,1,.56018-.13273c.18384,0,.26883.06559.30493.12851a.41219.41219,0,0,1,.03326.21528l-.06225.00689c-.66278.07273-1.0755.22241-1.0755.6864a.57737.57737,0,0,0,.62622.58027.81018.81018,0,0,0,.51571-.17762l-.00418.12586.01447.021c.1698-.00714.19986-.01117.37277-.01407l.0181-.01806a6.23478,6.23478,0,0,1-.02185-.69333v-.344Z" style="fill: #fff"/>
        <path d="M192.68274,46.94128c-.17658.0029-.21408.00693-.387.01407l-.0185-.02386c.00739-.24741.0185-.55927.0185-1.22583,0-.47962,0-.99249-.037-1.43707l.01849-.01941c.18112-.02924.21729-.035.401-.07273l.02228.02384c-.02542.45419-.02542.91131-.02542,1.367,0,.75894.01071,1.02307.029,1.353l-.02142.021Z" style="fill: #fff"/>
        <path d="M193.77628,46.94128c-.19144.0029-.22086.0029-.40152.01407l-.01789-.02386c.01071-.18448.02185-.34513.02185-.72971a6.97016,6.97016,0,0,0-.03613-.99228l.01788-.02386c.15793-.02518.21369-.03211.398-.0698l.03617.021c-.01029.18024-.02188.36762-.02188.81467,0,.64605.00714.7326.02188.96884l-.01831.021Zm.00357-2.30777c-.18738.00718-.22754.00983-.40827.02814l-.02276-.021c.00405-.04486.00405-.09372.00405-.13855,0-.06293-.00405-.1189-.00714-.18872l.02585-.01941c.191-.01429.224-.01831.40827-.03525l.02273.021c-.004.14277-.004.17624,0,.33014l-.02273.02365Z" style="fill: #fff"/>
        <path d="M195.23523,45.89014c.14722.04483.48184.15237.48184.52a.50583.50583,0,0,1-.20526.40954.95715.95715,0,0,1-.58981.16645,1.44154,1.44154,0,0,1-.50458-.0868l-.05444-.021-.01963-.03079c.01474-.13541.01474-.15238.02228-.292l.03751-.00979a.82011.82011,0,0,0,.51129.16641c.29132,0,.39749-.15259.39749-.2601,0-.1593-.1579-.21237-.38321-.28244l-.11734-.03769c-.15079-.04486-.48233-.14524-.48233-.503,0-.35651.33154-.53406.74377-.53406a1.45012,1.45012,0,0,1,.52961.09769l.01916.02386c-.01471.12872-.01916.14255-.02856.274l-.03388.014a.84808.84808,0,0,0-.47516-.13831.62616.62616,0,0,0-.15795.01651c-.11158.02811-.20255.10083-.20255.20834,0,.14948.15079.19431.37921.26013l.13254.039Z" style="fill: #fff"/>
        <path d="M197.45624,45.82031c-.33826.00269-.47876.0069-.925.00269a.48665.48665,0,0,1,.48593-.47785.41214.41214,0,0,1,.40241.2695.71886.71886,0,0,1,.03662.20566Zm-.01831-1.45089c-.0701.004-.14057.004-.21015.004-.07007,0-.13653,0-.21685-.004l-.0232.01806c-.08075.22507-.18738.44727-.22354.53116l.01383.02362c.129,0,.16912,0,.269.00314l.02591-.01428a6.05517,6.05517,0,0,1,.37967-.53381l-.01471-.02789Zm.294,2.13439a.92634.92634,0,0,1-.26458.15213,1.0019,1.0019,0,0,1-.32032.05179.61857.61857,0,0,1-.47653-.18716.64868.64868,0,0,1-.13922-.43347c.60458-.00266.7041-.00266,1.27829,0l.02542-.021a1.05579,1.05579,0,0,0-.19852-.73236.79373.79373,0,0,0-.60415-.23889.9467.9467,0,0,0,.08838,1.89127,1.26936,1.26936,0,0,0,.58978-.13163l.02145-.025a2.87676,2.87676,0,0,1,.03037-.309l-.03037-.01676Z" style="fill: #fff"/>
        <path d="M199.61829,45.82031c-.33954.00269-.47916.0069-.92444.00269a.48658.48658,0,0,1,.4859-.47785.41056.41056,0,0,1,.40109.2695.69178.69178,0,0,1,.03745.20566Zm.27618.6835a.95224.95224,0,0,1-.265.15213.99741.99741,0,0,1-.31989.05179.61655.61655,0,0,1-.476-.18716.64673.64673,0,0,1-.13968-.43347c.60321-.00266.70361-.00266,1.27826,0l.025-.021a1.05777,1.05777,0,0,0-.19806-.73236.79672.79672,0,0,0-.60409-.23889.94668.94668,0,0,0,.08789,1.89127,1.27033,1.27033,0,0,0,.59027-.13163l.02139-.025a2.99918,2.99918,0,0,1,.02945-.309l-.02945-.01676Z" style="fill: #fff"/>
        <path d="M163.0141,50.66071a.6278.6278,0,0,1-.41235.15258.49812.49812,0,0,1-.37955-.15527.63062.63062,0,0,1-.1362-.42651.69557.69557,0,0,1,.2138-.5452.80318.80318,0,0,1,.53394-.16333c.07764,0,.12158.00717.18414.00983.00357.57016.00357.6737-.00378,1.1279Zm-.01819-2.24775a7.20773,7.20773,0,0,1,.03278.84012c-.09912-.00671-.13617-.00671-.21314-.00671a1.22424,1.22424,0,0,0-.81067.23871.94038.94038,0,0,0-.32391.74643.82261.82261,0,0,0,.82852.89187.803.803,0,0,0,.50839-.17489l-.00738.12893.02591.02094c.16906-.00711.21347-.0098.37533-.0098l.01917-.02542c-.01529-.23874-.03-.49612-.03-1.03287,0-.348.00378-1.20776.03-1.69006l-.02622-.021c-.16592.03525-.20233.042-.39059.07276l-.01819.021Z" style="fill: #fff"/>
        <path d="M165.31653,49.96335c-.33887.004-.47907.00848-.92459.004a.48719.48719,0,0,1,.48581-.47919.412.412,0,0,1,.40142.27081.73211.73211,0,0,1,.03736.20435Zm.27618.6835a.94621.94621,0,0,1-.26526.1535,1.03909,1.03909,0,0,1-.32077.05176.61975.61975,0,0,1-.475-.187.6498.6498,0,0,1-.13977-.43365c.60382-.004.703-.004,1.2782,0l.02563-.021a1.05945,1.05945,0,0,0-.19922-.73218.79192.79192,0,0,0-.60388-.23913.946.946,0,0,0,.08847,1.88995,1.25128,1.25128,0,0,0,.58951-.13162l.02206-.02365a3.019,3.019,0,0,1,.029-.30875l-.029-.01831Z" style="fill: #fff"/>
        <path d="M168.46191,49.70056c.2688.11017.62619.257.62619.7,0,.38861-.30581.73975-.94738.73975a1.64354,1.64354,0,0,1-.72858-.1539l-.0145-.02365c.0145-.1218.01807-.18607.02921-.31857l.0368-.01429a1.12757,1.12757,0,0,0,.648.20435c.37925,0,.53785-.18341.53785-.39172,0-.24317-.21347-.33686-.45328-.42341l-.18408-.07675c-.26145-.11334-.61145-.26278-.61145-.68618a.61811.61811,0,0,1,.11447-.365.93569.93569,0,0,1,.7734-.30475,2.05168,2.05168,0,0,1,.663.1102l.018.02813c-.014.13294-.018.18024-.029.30606l-.02945.01383a1.26933,1.26933,0,0,0-.60788-.16062c-.30584,0-.497.13562-.497.34131a.31429.31429,0,0,0,.1878.274,2.15483,2.15483,0,0,0,.2833.124l.18447.07718Z" style="fill: #fff"/>
        <path d="M171.2868,49.29364c-.00692.26416-.01113.51044-.01113.791,0,.42654.01113.68353.01846.83343,0,.04865.00378.09772.00738.145l-.01471.02274c-.17666.00268-.20611.00537-.37567.01248l-.02231-.02094.00425-.14544a.98577.98577,0,0,1-.57865.1972.71612.71612,0,0,1-.41989-.1178.86738.86738,0,0,1-.23938-.74463v-.21551c-.00708-.49613-.00708-.55188-.01849-.73929l.01849-.02542c.1727-.00266.206-.00266.37927-.01651l.02207.02362-.01447.76025c0,.09372-.00406.16376,0,.3302.00315.14545.01093.45688.38278.45688a.76092.76092,0,0,0,.46091-.18026c.00311-.18738.00311-.34668.00311-.54789a6.58223,6.58223,0,0,0-.0259-.80532l.02279-.02363c.16907-.00271.20993-.00271.37921-.01385l.02188.02362Z" style="fill: #fff"/>
        <path d="M172.37723,51.08588c-.19165.00268-.22132.00268-.402.01248l-.01807-.02539c.01071-.183.02185-.34223.02185-.72815a6.73182,6.73182,0,0,0-.037-.99091l.01895-.02545c.1586-.02365.21365-.0303.398-.06827l.03656.021c-.01181.17892-.02185.36764-.02185.8147,0,.64471.00732.7326.02185.96728l-.01828.02274Zm.00375-2.30933c-.18805.00851-.22885.01117-.40936.02948l-.02225-.021c.00418-.04641.00418-.09506.00418-.1401,0-.06293-.00418-.11734-.00735-.187l.02542-.02094c.19232-.01294.2251-.017.40936-.0339l.02188.021c-.00378.14142-.00378.17624,0,.32883l-.02188.02362Z" style="fill: #fff"/>
        <path d="M173.83618,50.033c.14655.045.48206.15259.48206.52023a.50422.50422,0,0,1-.20612.40958.94874.94874,0,0,1-.58987.16641,1.43624,1.43624,0,0,1-.50434-.087.38168.38168,0,0,1-.05514-.021l-.0185-.03079c.015-.13516.015-.15216.02189-.29044l.03744-.01117a.81323.81323,0,0,0,.512.16645c.29047,0,.39689-.15262.39689-.26014,0-.15927-.15748-.211-.38257-.28109l-.1178-.03748c-.15079-.045-.48251-.14676-.48251-.50327,0-.35781.33172-.53405.74395-.53405a1.4962,1.4962,0,0,1,.53.09637l.01856.02365c-.01432.12894-.01856.14276-.02924.2757l-.03326.01385a.84581.84581,0,0,0-.47492-.13964.63961.63961,0,0,0-.15863.01785.23377.23377,0,0,0-.20233.20831c0,.14819.151.19458.37946.26016l.133.03748Z" style="fill: #fff"/>
        <path d="M175.61118,50.033c.14682.045.48184.15259.48184.52023a.501.501,0,0,1-.20609.40958.94511.94511,0,0,1-.58917.16641,1.43182,1.43182,0,0,1-.50412-.087.38793.38793,0,0,1-.05579-.021l-.01809-.03079c.01431-.13516.01431-.15216.02166-.29044l.037-.01117a.81587.81587,0,0,0,.51172.16645c.29071,0,.39755-.15262.39755-.26014,0-.15927-.158-.211-.38235-.28109l-.11777-.03748c-.15191-.045-.48276-.14676-.48276-.50327,0-.35781.33085-.53405.744-.53405a1.50055,1.50055,0,0,1,.53027.09637l.01832.02365c-.01429.12894-.01832.14276-.029.2757l-.03347.01385a.84867.84867,0,0,0-.47474-.13964.63327.63327,0,0,0-.15817.01785c-.11105.0281-.203.10083-.203.20831,0,.14819.15127.19458.37878.26016l.1334.03748Z" style="fill: #fff"/>
        <path d="M177.83194,49.96335c-.33929.004-.4787.00848-.92462.004a.4876.4876,0,0,1,.48608-.47919.41386.41386,0,0,1,.402.27081.73392.73392,0,0,1,.03653.20435Zm.276.6835a.9459.9459,0,0,1-.26526.1535,1.03549,1.03549,0,0,1-.31988.05176.62057.62057,0,0,1-.47559-.187.65252.65252,0,0,1-.13986-.43365c.60342-.004.70383-.004,1.27823,0l.02566-.021a1.05571,1.05571,0,0,0-.199-.73218.79191.79191,0,0,0-.6041-.23913.946.946,0,0,0,.08829,1.88995,1.24542,1.24542,0,0,0,.58893-.13162l.02255-.02365c.00735-.13565.01141-.17044.029-.30875l-.029-.01831Z" style="fill: #fff"/>
        <path d="M181.33856,50.17172a1.01923,1.01923,0,0,1-.0852.46268.45455.45455,0,0,1-.42011.232.50436.50436,0,0,1-.21683-.04641.64737.64737,0,0,1-.29513-.62729.87887.87887,0,0,1,.11093-.48944.46849.46849,0,0,1,.4053-.20124.43613.43613,0,0,1,.39374.19855,1.02687,1.02687,0,0,1,.1073.47116Zm.40085-.01428a.99644.99644,0,0,0-.22461-.66925.89062.89062,0,0,0-.65918-.249.86243.86243,0,0,0-.939.94632.97851.97851,0,0,0,.25381.70846.92458.92458,0,0,0,.659.232.88422.88422,0,0,0,.63736-.21237.80712.80712,0,0,0,.23984-.41938,1.42952,1.42952,0,0,0,.03274-.33685Z" style="fill: #fff"/>
        <path d="M183.71033,50.67453c-.01474.14987-.019.16644-.029.3092l-.02634.02366a1.08323,1.08323,0,0,1-.50839.11865.87072.87072,0,0,1-.91754-.91953.90122.90122,0,0,1,.92489-.96728,1.28623,1.28623,0,0,1,.50461.11023l.01471.02542c-.01471.12448-.01828.16907-.02564.27392l-.02972.01252a.72751.72751,0,0,0-.40866-.13431.58731.58731,0,0,0-.57462.66568.55814.55814,0,0,0,.57105.64157.75109.75109,0,0,0,.47565-.17355l.029.01382Z" style="fill: #fff"/>
        <path d="M185.56348,50.67453c-.01538.14987-.01895.16644-.03034.3092l-.02569.02366a1.07739,1.07739,0,0,1-.50769.11865.87047.87047,0,0,1-.91755-.91953.90134.90134,0,0,1,.9249-.96728,1.28287,1.28287,0,0,1,.50412.11023l.01453.02542c-.01453.12448-.01831.16907-.02585.27392l-.029.01252a.73194.73194,0,0,0-.40848-.13431.587.587,0,0,0-.57483.66568.55783.55783,0,0,0,.57016.64157.7463.7463,0,0,0,.4754-.17355l.03034.01382Z" style="fill: #fff"/>
        <path d="M186.4357,51.08588c-.19092.00268-.22083.00268-.40134.01248l-.01849-.02539c.01114-.183.02206-.34223.02206-.72815a6.74526,6.74526,0,0,0-.03677-.99091l.01874-.02545c.15817-.02365.213-.0303.39728-.06827l.03662.021c-.01093.17892-.0221.36764-.0221.8147,0,.64471.00806.7326.0221.96728l-.0181.02274Zm.00406-2.30933c-.1883.00851-.22846.01117-.40918.02948l-.02185-.021c.00335-.04641.00335-.09506.00335-.1401,0-.06293-.00335-.11734-.00668-.187l.02518-.02094c.19144-.01294.2251-.017.40918-.0339l.022.021c-.00375.14142-.00375.17624,0,.32883l-.022.02362Z" style="fill: #fff"/>
        <path d="M188.35129,50.66071a.62992.62992,0,0,1-.41272.15258.501.501,0,0,1-.37988-.15527.636.636,0,0,1-.13584-.42651.69945.69945,0,0,1,.2135-.5452.80286.80286,0,0,1,.53406-.16333c.07739,0,.12177.00717.18448.00983.00329.57016.00329.6737-.0036,1.1279Zm-.0185-2.24775a7.25632,7.25632,0,0,1,.03345.84012c-.10019-.00671-.1365-.00671-.21414-.00671a1.22264,1.22264,0,0,0-.81024.23871.94027.94027,0,0,0-.32416.74643.82247.82247,0,0,0,.829.89187.8042.8042,0,0,0,.50818-.17489l-.00784.12893.02587.02094c.17023-.00711.21351-.0098.37635-.0098l.01831-.02542c-.01544-.23874-.02945-.49612-.02945-1.03287,0-.348.00311-1.20776.02945-1.69006l-.02634-.021c-.16528.03525-.20233.042-.38995.07276l-.0185.021Z" style="fill: #fff"/>
        <path d="M190.653,49.96335c-.33863.004-.4787.00848-.92463.004a.48816.48816,0,0,1,.48676-.47919.413.413,0,0,1,.40134.27081.724.724,0,0,1,.03653.20435Zm.27645.6835a.946.946,0,0,1-.26483.1535,1.04326,1.04326,0,0,1-.3208.05176.61891.61891,0,0,1-.47491-.187.65009.65009,0,0,1-.14054-.43365c.60431-.004.7038-.004,1.278,0l.02588-.021a1.05381,1.05381,0,0,0-.19855-.73218.793.793,0,0,0-.60413-.23913.946.946,0,0,0,.08838,1.88995,1.24995,1.24995,0,0,0,.58911-.13162l.02237-.02365a2.89651,2.89651,0,0,1,.02939-.30875l-.02939-.01831Z" style="fill: #fff"/>
        <path d="M193.22394,51.08588c-.17713.00268-.199.00268-.36856.01248L192.83,51.073c0-.03617.00354-.07541.00354-.11289.00357-.1709.00357-.34.00357-.5104a2.88887,2.88887,0,0,0-.02182-.64157.32012.32012,0,0,0-.33185-.26416.83141.83141,0,0,0-.48947.19409c-.00357.60412.00338.92.029,1.3251l-.02167.02274c-.18066.00268-.21014.00268-.38681.01248l-.01831-.02539c.00318-.19275.011-.38013.011-.63712,0-.55505-.02637-.85-.04441-1.08194l.02182-.02545c.18381-.0303.2175-.03747.39087-.06827l.02585.02368-.004.18021a1.15632,1.15632,0,0,1,.64881-.215.66941.66941,0,0,1,.30517.06559.47824.47824,0,0,1,.21326.22665,1.0014,1.0014,0,0,1,.05579.42206v.40646c.01068.40689.01425.56217.0263.69333l-.02273.02274Z" style="fill: #fff"/>
        <path d="M194.74841,50.81329c-.01111.11423-.01111.13965-.01379.24l-.01965.01966a1.00341,1.00341,0,0,1-.27524.0321.4929.4929,0,0,1-.43546-.18023c-.06564-.10044-.06564-.18427-.06564-.5925l.00717-.7634c-.129,0-.13251.00314-.265.0058l-.01471-.01963c.00717-.112.00717-.13964.00717-.2503l.02185-.02094c.08121,0,.12939.00266.25073,0-.0036-.07275-.0036-.14816-.0036-.22219-.00357-.06559-.00708-.13117-.01111-.19855l.01831-.02365c.166-.03794.20654-.04907.37564-.09638l.02585.01651c-.01111.22931-.01471.27393-.01471.52692.15439-.00266.19855-.00266.40869-.00937l.01917.021a2.40317,2.40317,0,0,0-.01111.24579l-.01831.021c-.18469-.00268-.207-.00714-.402-.00714l-.00757.64468c.004.04151.004.24006.004.28913,0,.253.03394.33279.21774.33279a.53141.53141,0,0,0,.1767-.03076l.02493.01965Z" style="fill: #fff"/>
        <path d="M196.25113,50.11282v.58a.59787.59787,0,0,1-.40109.15259.31292.31292,0,0,1-.34937-.31589c0-.3092.34577-.35782.71832-.40958l.03214-.00714Zm.38013-.08255a2.15014,2.15014,0,0,0-.02634-.43454.57.57,0,0,0-.61523-.3565,1.98544,1.98544,0,0,0-.63712.11468l-.02234.021c-.00314.07269-.00314.09366-.01068.253l.02988.01651a1.37217,1.37217,0,0,1,.55944-.13117.32168.32168,0,0,1,.30524.12851.40519.40519,0,0,1,.03345.21546l-.062.00537c-.66346.07406-1.07614.22217-1.07614.688a.57676.57676,0,0,0,.62686.5787.81409.81409,0,0,0,.51486-.17624l-.00357.12448.01471.02094c.17-.00711.19855-.0098.3721-.01248l.01919-.01831a5.95026,5.95026,0,0,1-.0223-.6933v-.344Z" style="fill: #fff"/>
        <path d="M197.70651,51.08588c-.17712.00268-.2142.00537-.3873.01248L197.301,51.073c.00711-.24451.01825-.55771.01825-1.22428,0-.47827,0-.99093-.03656-1.43573l.01831-.021c.18018-.02768.21814-.03348.40195-.07276l.02146.02411c-.025.45417-.025.91285-.025,1.367,0,.76025.01114,1.02438.02942,1.35275l-.02225.02274Z" style="fill: #fff"/>
        <path d="M199.61829,49.96335c-.33954.004-.47916.00848-.92444.004a.48786.48786,0,0,1,.4859-.47919.41181.41181,0,0,1,.40109.27081.69172.69172,0,0,1,.03745.20435Zm.27618.6835a.95888.95888,0,0,1-.265.1535,1.03656,1.03656,0,0,1-.31989.05176.622.622,0,0,1-.476-.187.6516.6516,0,0,1-.13968-.43365c.60321-.004.70361-.004,1.27826,0l.025-.021a1.05553,1.05553,0,0,0-.19806-.73218.79613.79613,0,0,0-.60409-.23913.946.946,0,0,0,.08789,1.88995,1.253,1.253,0,0,0,.59027-.13162l.02139-.02365a2.96058,2.96058,0,0,1,.02945-.30875l-.02945-.01831Z" style="fill: #fff"/>
        <path d="M189.21976,36.16608c.6398.19644,2.09472.66253,2.09472,2.26025a2.19183,2.19183,0,0,1-.8959,1.77628,4.12124,4.12124,0,0,1-2.55786.724,6.19568,6.19568,0,0,1-2.18994-.37723c-.08057-.02945-.1604-.06021-.24091-.091l-.07922-.13565c.06378-.587.06378-.6622.0957-1.26461l.15994-.04474a3.54408,3.54408,0,0,0,2.22257.72232c1.26327,0,1.72662-.6622,1.72662-1.129,0-.69333-.68707-.9191-1.66241-1.22025l-.512-.16577c-.65542-.19494-2.09448-.63241-2.09448-2.18326,0-1.55154,1.43906-2.31961,3.22952-2.31961a6.40548,6.40548,0,0,1,2.30265.42209l.07986.10486c-.06381.55771-.07986.61783-.12851,1.18958l-.14319.06073a3.69489,3.69489,0,0,0-2.06286-.60248,2.73033,2.73033,0,0,0-.68775.0755,1.01333,1.01333,0,0,0-.87915.90369c0,.64715.65521.84292,1.64771,1.12945l.57486.16486Z" style="fill: #fff"/>
        <path d="M198.82861,36.76849A4.37657,4.37657,0,0,1,198.461,38.773a1.97133,1.97133,0,0,1-1.82169,1.00888,2.25829,2.25829,0,0,1-.94452-.19678c-1.26263-.60241-1.27871-2.12326-1.27871-2.7257a3.80333,3.80333,0,0,1,.47915-2.12326,2.03048,2.03048,0,0,1,1.75922-.87357,1.89368,1.89368,0,0,1,1.71106.85828,4.49452,4.49452,0,0,1,.46313,2.04763Zm1.74314-.06a4.32341,4.32341,0,0,0-.97577-2.906,3.86837,3.86837,0,0,0-2.8617-1.08466,3.7437,3.7437,0,0,0-4.077,4.11081,4.22982,4.22982,0,0,0,1.1029,3.0734,3.98681,3.98681,0,0,0,2.86121,1.00921,3.8602,3.8602,0,0,0,2.7662-.91976,3.51769,3.51769,0,0,0,1.04-1.82157,6.14374,6.14374,0,0,0,.14414-1.46139Z" style="fill: #fff"/>
        <path d="M183.463,36.83286a.95156.95156,0,1,1-.95169-.95188.95187.95187,0,0,1,.95169.95188Z" style="fill: #fff"/>
        <path d="M161.55716,30.21362c-.0156,1.15949-.03214,1.86676-.03214,2.92069,0,2.53073.04831,5.046.17579,7.57568l-.07962.09079c-1.35871-.01538-1.67844,0-2.87806.04486l-.07995-.091c.07995-2.12216.07995-2.61972.04785-4.6521-.6395-.01462-1.279-.03-1.91852-.03-.62305,0-1.215.01538-1.91772.04474.01541,2.18326.03112,2.72555.12716,4.59274l-.07965.09079c-1.40686-.01538-1.69516,0-2.862.04486l-.08032-.091c.03214-1.26319.06427-2.00125.06427-3.357,0-3.73492-.096-5.58773-.17648-7.13925l.09616-.09012c1.39111,0,1.63083,0,2.86221-.04474l.07974.09012-.03112,3.97608c.55908,0,1.13427.01529,1.69375.01529.71952,0,1.42334-.01529,2.12674-.03067-.01571-1.77808-.01571-2.21344-.12793-3.916l.08-.09012c1.34283,0,1.55054,0,2.82944-.04474l.08032.09012Z" style="fill: #fff"/>
        <path d="M165.98282,35.87674a1.76,1.76,0,0,1,.76788-1.4606,1.18181,1.18181,0,0,1,.63977-.16645,1.15838,1.15838,0,0,1,1.02286.527,1.75193,1.75193,0,0,1,.23978,1.03855l-2.67029.06146Zm4.84512,2.69559a5.12227,5.12227,0,0,1-2.49472.64727,2.27285,2.27285,0,0,1-1.99832-.82821,2.05827,2.05827,0,0,1-.35208-.9184l5.165-.09079.09573-.1055a8.345,8.345,0,0,0-.25589-2.2442,3.02068,3.02068,0,0,0-2.33453-2.25879,4.35623,4.35623,0,0,0-1.135-.13565,3.87518,3.87518,0,0,0-4.17316,4.157,4.76631,4.76631,0,0,0,.38345,1.973c.92771,2.03268,3.10236,2.21316,4.25348,2.21316a6.50094,6.50094,0,0,0,2.7497-.54242l.09637-.12024.112-1.70074-.112-.04553Z" style="fill: #fff"/>
        <path d="M177.57431,35.87674c.88.31589,2.11148.752,2.11148,2.40839a2.25239,2.25239,0,0,1-.01721.33273c-.28711,2.15237-2.68543,2.3634-3.90057,2.3634a7.0162,7.0162,0,0,1-2.6225-.51175l-.0792-.1355c.06379-.75247.0792-.91809.11173-1.70156l.14368-.06012a3.499,3.499,0,0,0,.63983.42154,4.19283,4.19283,0,0,0,1.69473.422c.895,0,1.26331-.4067,1.26331-.78347,0-.5423-.70407-.76807-1.13553-.90357l-.60788-.21115a2.525,2.525,0,0,1-2.07819-2.36432,2.17566,2.17566,0,0,1,.43164-1.32577,3.85863,3.85863,0,0,1,3.18155-1.18958,8.574,8.574,0,0,1,2.44632.37677l.07965.09015-.15951,1.64166-.14386.0455a3.59875,3.59875,0,0,0-1.9986-.63327c-.99139,0-1.11938.49762-1.11938.678,0,.42139.43139.587.97592.7674l.78259.27249Z" style="fill: #fff"/>
        <path d="M206.02869,29.81256c-.02808.05719-4.66144,9.92313-4.66144,9.92313a2.40657,2.40657,0,0,0-.361,1.1965,1.56964,1.56964,0,0,0,1.55713,1.61438c1.02478,0,1.42367-.79791,1.715-1.37973L209.121,30.90207a2.338,2.338,0,0,0,.26862-1.04837,1.55962,1.55962,0,0,0-1.57584-1.57663c-1.04132,0-1.47146.88751-1.78512,1.53549ZM201.543,40.93219a1.85432,1.85432,0,0,1,.29358-.93372c.017-.03488,4.65076-9.90087,4.65076-9.90087.31762-.65693.62194-1.28379,1.32644-1.28379a1.01637,1.01637,0,0,1,1.0391,1.03989,1.84,1.84,0,0,1-.21729.81982s-4.83417,10.24753-4.83728,10.25309c-.26587.53247-.542,1.08328-1.23492,1.08328a1.03913,1.03913,0,0,1-1.02039-1.0777Z" style="fill: #fff"/>
        <path d="M210.46533,29.81387c-.02722.05588-4.66015,9.92182-4.66015,9.92182a2.40176,2.40176,0,0,0-.36228,1.1965,1.56982,1.56982,0,0,0,1.558,1.61438c1.02658,0,1.425-.79947,1.71594-1.38239l4.84167-10.26211a2.34409,2.34409,0,0,0,.26813-1.04837,1.559,1.559,0,0,0-1.57577-1.57663c-1.0405,0-1.471.88821-1.78556,1.5368Zm-4.48572,11.11832a1.861,1.861,0,0,1,.29627-.938c.01562-.03064,4.64856-9.89663,4.64856-9.89663.31811-.65613.62195-1.28379,1.32645-1.28379A1.01636,1.01636,0,0,1,213.29,29.8537a1.84074,1.84074,0,0,1-.21726.81982s-4.81588,10.20691-4.83682,10.25153c-.3168.63489-.59073,1.08484-1.23495,1.08484a1.03987,1.03987,0,0,1-1.02131-1.0777Z" style="fill: #fff"/>
        <path d="M216.74146,37.803c.44439,0,.6206.22574.6206.67721a2.23413,2.23413,0,0,1-2.30041,2.3851,2.60263,2.60263,0,0,1,0-5.19329c1.06543,0,1.94036.5018,1.94036.99527a.44643.44643,0,0,1-.43768.49347c-.47919,0-.57864-.51444-1.50268-.51444-.88208,0-1.32645.76871-1.32645,1.62277,0,.86032.43057,1.62177,1.32645,1.62177a1.10119,1.10119,0,0,0,1.19931-1.11435h-.71882a.48681.48681,0,1,1,0-.97351Z" style="fill: #fff"/>
        <path d="M217.74265,36.37085c0-.35291.1762-.61356.55011-.61356h1.7503a.46983.46983,0,0,1,.501.48642.47781.47781,0,0,1-.501.48709h-1.24213v1.02955h1.15735a.4781.4781,0,0,1,.51486.48709.486.486,0,0,1-.51486.48709h-1.15735V39.807h1.30545a.4691.4691,0,0,1,.50065.48642.47668.47668,0,0,1-.50065.48642h-1.82074a.51444.51444,0,0,1-.543-.52836V36.37085Z" style="fill: #fff"/>
        <path d="M220.96661,36.26468a.50578.50578,0,0,1,.52912-.55.65718.65718,0,0,1,.44439.23267l2.23658,2.98425h.01385V36.26468a.53.53,0,1,1,1.05918,0V40.2724a.50663.50663,0,0,1-.53.5509.67249.67249,0,0,1-.44352-.23355l-2.2366-2.949h-.01474V40.2724a.52956.52956,0,1,1-1.05826,0V36.26468Z" style="fill: #fff"/>
        <path d="M225.84222,36.37085c0-.35291.17627-.61356.55008-.61356h1.74942a.46954.46954,0,0,1,.501.48642.47727.47727,0,0,1-.501.48709h-1.24124v1.02955H228.057a.47824.47824,0,0,1,.51535.48709.48593.48593,0,0,1-.51535.48709h-1.15647V39.807h1.30463a.469.469,0,0,1,.501.48642.47676.47676,0,0,1-.501.48642h-1.81989a.51444.51444,0,0,1-.543-.52836V36.37085Zm1.93235-1.77792.05667.028a.34484.34484,0,0,1,.19763.28232c0,.24734-.162.51507-.3739.51507-.141,0-.07764,0-.282-.07058l-.79059-.31031a.4036.4036,0,0,1-.28864-.4165.44752.44752,0,0,1,.381-.43756.75188.75188,0,0,1,.26767.07129l.8321.33829Z" style="fill: #fff"/>
        <path d="M228.86142,36.48407a.67045.67045,0,0,1-.04953-.26132.52783.52783,0,0,1,1.023-.1622l1.094,2.93463,1.09314-2.93463a.52782.52782,0,0,1,1.023.1622.65418.65418,0,0,1-.04956.26132l-1.54455,3.92957a.53741.53741,0,0,1-1.044,0l-1.5455-3.92957Z" style="fill: #fff"/>
        <path d="M233.33414,36.37085c0-.35291.17624-.61356.55011-.61356h1.75027a.46905.46905,0,0,1,.50018.48642.47707.47707,0,0,1-.50018.48709h-1.24209v1.02955h1.15734a.47844.47844,0,0,1,.51529.48709.48644.48644,0,0,1-.51529.48709h-1.15734V39.807h1.30551a.46907.46907,0,0,1,.50055.48642.47665.47665,0,0,1-.50055.48642h-1.82038a.51454.51454,0,0,1-.54342-.52836V36.37085Z" style="fill: #fff"/>
        <path d="M16.11,51.3V39.45H8.4v3.18h3.78v.27c0,3.03-1.11,5.22-3.69,5.22-2.34,0-3.87-2.07-3.87-7.47,0-5.43,1.44-7.5,3.99-7.5,1.95,0,2.91,1.26,3.12,3.57l4.29-.6c-.18-2.88-2.13-6.63-7.35-6.63C3.03,29.49,0,33.69,0,40.65c0,7.41,3.48,11.13,8.22,11.13a4.86181,4.86181,0,0,0,4.71-3.12h.06l.48,2.64Zm13.82974-4.56a2.42186,2.42186,0,0,1-2.58,2.01c-1.8,0-2.97-1.08-3.03-3.69h9.36a13.8787,13.8787,0,0,0,.09-1.62c0-4.44-2.64-7.26-6.54-7.26-4.17,0-6.93,2.97-6.93,7.71s2.49,7.83,6.99,7.83a5.78282,5.78282,0,0,0,6.09-4.56l-3.45-.42Zm-5.58-4.17c.03-2.07,1.11-3.42,2.79-3.42,1.86,0,2.67,1.29,2.7,3.42Zm17.30957-4.08c-.03-.63-.06-1.32-.12-1.92h-3.81c.09,1.5.15,3.21.15,4.65V51.3h4.02V43.14c0-2.76,1.41-3.66,2.73-3.66a1.97173,1.97173,0,0,1,1.74.84,3.95161,3.95161,0,0,1,.51,2.28v8.7h4.02V41.91a6.60207,6.60207,0,0,0-1.05-3.9,4.58092,4.58092,0,0,0-4.11-1.83,4.53027,4.53027,0,0,0-4.02,2.31Zm22.79953,8.25a2.42186,2.42186,0,0,1-2.58,2.01c-1.8,0-2.97-1.08-3.03-3.69h9.36a13.88089,13.88089,0,0,0,.09-1.62c0-4.44-2.64-7.26-6.54-7.26-4.17,0-6.93,2.97-6.93,7.71s2.49,7.83,6.99,7.83a5.78281,5.78281,0,0,0,6.09-4.56l-3.45-.42Zm-5.58-4.17c.03-2.07,1.11-3.42,2.79-3.42,1.86,0,2.67,1.29,2.7,3.42Zm6.36-7.53.81-1.59-7.05-4.56-1.44,3.15,7.68,3Zm9.62955,1.53h-4.29l5.4,14.73h3.63l5.4-14.73H80.87842l-1.98,6.45c-.42,1.38-.66,2.37-.96,3.66h-.06c-.3-1.29-.54-2.28-.96-3.66l-2.04-6.45ZM96.95819,46.74a2.42187,2.42187,0,0,1-2.58,2.01c-1.8,0-2.97-1.08-3.03-3.69h9.36a13.87863,13.87863,0,0,0,.09-1.62c0-4.44-2.64-7.26-6.54-7.26-4.17,0-6.93,2.97-6.93,7.71s2.49,7.83,6.99,7.83a5.78279,5.78279,0,0,0,6.09-4.56l-3.45-.42Zm-5.58-4.17c.03-2.07,1.11-3.42,2.79-3.42,1.86,0,2.67,1.29,2.7,3.42Z" style="fill: #fff"/>
        <path d="M21.09207,11.4V9.66H1.55606V11.4Zm21.79009,9.9V0h-4.5V8.58h-5.97V0h-4.5V21.3h4.5V12.24h5.97V21.3Zm19.2897,0V17.64h-8.79V12.06h7.17V8.61h-7.17V3.66h8.79V0h-13.29V21.3Zm20.51936,0L75.97122,0h-4.26l-6.69,21.3h4.53l1.08-3.93h6.26995l1.05,3.93Zm-6.72-7.38h-4.41l1.14-4.32c.36-1.32.75-2.88,1.08-4.47h.03c.33,1.59.75,3.15,1.08,4.44l1.08,4.35Zm26.15946-3.63c0-4.23-1.41-8.22-5.16-9.69a9.59881,9.59881,0,0,0-3.54-.6h-7.02V21.3h6.99a10.15664,10.15664,0,0,0,3.51-.54c3.9-1.41,5.22-5.37,5.22-10.47Zm-4.53.36c0,4.08-1.08,7.11-4.2,7.11h-2.52V3.54h2.1c3.81,0,4.62,3.54,4.62,7.11Z" style="fill: #fff"/>
      </g>
    </g>
  </g>
</svg>
