<?xml version="1.0" encoding="utf-8"?>
<!-- Generator: Adobe Illustrator 26.2.1, SVG Export Plug-In . SVG Version: 6.00 Build 0)  -->
<svg version="1.1" id="Layer_1" xmlns="http://www.w3.org/2000/svg" xmlns:xlink="http://www.w3.org/1999/xlink" x="0px" y="0px"
	 viewBox="0 0 160 160" style="enable-background:new 0 0 160 160;" xml:space="preserve">
<style type="text/css">
	.st0{clip-path:url(#SVGID_00000035517744138759078080000001735839685433858954_);fill:#001EFF;}
	.st1{clip-path:url(#SVGID_00000035517744138759078080000001735839685433858954_);fill:none;stroke:#001EFF;stroke-width:5;}
	.st2{clip-path:url(#SVGID_00000035517744138759078080000001735839685433858954_);fill:none;stroke:#001EFF;stroke-width:6;}
</style>
<g>
	<defs>
		<rect id="SVGID_1_" x="1.5" y="1.5" width="157" height="157"/>
	</defs>
	<clipPath id="SVGID_00000052099056192275748040000017561921626861569714_">
		<use xlink:href="#SVGID_1_"  style="overflow:visible;"/>
	</clipPath>
	<path style="clip-path:url(#SVGID_00000052099056192275748040000017561921626861569714_);fill:#001EFF;" d="M59.1,75.2
		c3.6,0,6.5-10.4,6.5-23.1c0-12.8-2.9-23.1-6.5-23.1c-3.6,0-6.5,10.4-6.5,23.1C52.6,64.9,55.5,75.2,59.1,75.2"/>
	<path style="clip-path:url(#SVGID_00000052099056192275748040000017561921626861569714_);fill:#001EFF;" d="M96.6,75.2
		c3.6,0,6.5-10.4,6.5-23.1c0-12.8-2.9-23.1-6.5-23.1c-3.6,0-6.5,10.4-6.5,23.1C90.1,64.9,93,75.2,96.6,75.2"/>
	
		<path style="clip-path:url(#SVGID_00000052099056192275748040000017561921626861569714_);fill:none;stroke:#001EFF;stroke-width:5;" d="
		M29.1,84.7c4.5,26,25.4,45.7,50.6,45.7c25,0,45.9-19.5,50.5-45.3"/>
	<path style="clip-path:url(#SVGID_00000052099056192275748040000017561921626861569714_);fill:#001EFF;" d="M29.4,86.8
		c5.3-1.4,9.4-3.7,9-5c-0.4-1.3-5-1.2-10.3,0.2s-9.4,3.7-9,5C19.5,88.3,24.1,88.2,29.4,86.8"/>
	<path style="clip-path:url(#SVGID_00000052099056192275748040000017561921626861569714_);fill:#001EFF;" d="M129.8,86.8
		c-5.3-1.4-9.4-3.7-9-5c0.4-1.3,5-1.2,10.3,0.2c5.3,1.4,9.4,3.7,9,5C139.8,88.3,135.2,88.2,129.8,86.8"/>
	
		<circle style="clip-path:url(#SVGID_00000052099056192275748040000017561921626861569714_);fill:none;stroke:#001EFF;stroke-width:6;" cx="80" cy="80" r="75.5"/>
</g>
</svg>
